<mxfile host="localhost" modified="2020-05-18T11:38:37.764Z" agent="5.0 (Macintosh; Intel Mac OS X 10_15_4) AppleWebKit/537.36 (KHTML, like Gecko) Code/1.45.0 Chrome/78.0.3904.130 Electron/7.2.4 Safari/537.36" etag="Nodnzyhdf5-jg4KyAtvt" version="13.0.9">
    <diagram id="6hGFLwfOUW9BJ-s0fimq" name="Page-1">
        <mxGraphModel dx="3744" dy="2140" grid="1" gridSize="10" guides="1" tooltips="1" connect="1" arrows="1" fold="1" page="1" pageScale="1" pageWidth="827" pageHeight="1169" math="0" shadow="0">
            <root>
                <mxCell id="0"/>
                <mxCell id="1" parent="0"/>
                <mxCell id="162" value="" style="rounded=0;whiteSpace=wrap;html=1;fillColor=none;" parent="1" vertex="1">
                    <mxGeometry x="-944.04" y="33" width="370" height="667" as="geometry"/>
                </mxCell>
                <mxCell id="6" value="" style="rounded=0;whiteSpace=wrap;html=1;fillColor=none;" parent="1" vertex="1">
                    <mxGeometry x="-1543" y="-730" width="370" height="667" as="geometry"/>
                </mxCell>
                <mxCell id="7" value="IMAGE&lt;br&gt;&amp;nbsp;PRODUIT" style="whiteSpace=wrap;html=1;aspect=fixed;fillColor=none;" parent="1" vertex="1">
                    <mxGeometry x="-1526" y="-695" width="130" height="130" as="geometry"/>
                </mxCell>
                <mxCell id="8" value="NOM DU PRODUIT" style="text;html=1;strokeColor=none;fillColor=none;align=center;verticalAlign=middle;whiteSpace=wrap;rounded=0;" parent="1" vertex="1">
                    <mxGeometry x="-1356" y="-700" width="150" height="20" as="geometry"/>
                </mxCell>
                <mxCell id="9" value="&lt;i&gt;Marque&lt;/i&gt;" style="text;html=1;strokeColor=none;fillColor=none;align=center;verticalAlign=middle;whiteSpace=wrap;rounded=0;" parent="1" vertex="1">
                    <mxGeometry x="-1336" y="-660" width="40" height="20" as="geometry"/>
                </mxCell>
                <mxCell id="10" value="" style="endArrow=none;dashed=1;html=1;exitX=0;exitY=0.25;exitDx=0;exitDy=0;entryX=1;entryY=0.25;entryDx=0;entryDy=0;" parent="1" edge="1">
                    <mxGeometry width="50" height="50" relative="1" as="geometry">
                        <mxPoint x="-1542.0000000000002" y="-553.25" as="sourcePoint"/>
                        <mxPoint x="-1172" y="-553.25" as="targetPoint"/>
                    </mxGeometry>
                </mxCell>
                <mxCell id="11" value="Allergènes et intolérances" style="text;html=1;strokeColor=none;fillColor=none;align=left;verticalAlign=middle;whiteSpace=wrap;rounded=0;" parent="1" vertex="1">
                    <mxGeometry x="-1526" y="-540" width="150" height="20" as="geometry"/>
                </mxCell>
                <mxCell id="14" value="Voir tout" style="text;html=1;strokeColor=none;fillColor=none;align=center;verticalAlign=middle;whiteSpace=wrap;rounded=0;" parent="1" vertex="1">
                    <mxGeometry x="-1246" y="-540" width="60" height="20" as="geometry"/>
                </mxCell>
                <mxCell id="16" value="" style="endArrow=none;dashed=1;html=1;exitX=0;exitY=0.25;exitDx=0;exitDy=0;entryX=1;entryY=0.25;entryDx=0;entryDy=0;" parent="1" edge="1">
                    <mxGeometry width="50" height="50" relative="1" as="geometry">
                        <mxPoint x="-1542" y="-400" as="sourcePoint"/>
                        <mxPoint x="-1172" y="-400" as="targetPoint"/>
                    </mxGeometry>
                </mxCell>
                <mxCell id="17" value="" style="group" parent="1" vertex="1" connectable="0">
                    <mxGeometry x="-1526" y="-510" width="340" height="40" as="geometry"/>
                </mxCell>
                <mxCell id="12" value="" style="rounded=1;whiteSpace=wrap;html=1;fillColor=none;" parent="17" vertex="1">
                    <mxGeometry width="340" height="40" as="geometry"/>
                </mxCell>
                <mxCell id="13" value="NOM_COMPOSANT" style="text;html=1;strokeColor=none;fillColor=none;align=center;verticalAlign=middle;whiteSpace=wrap;rounded=0;" parent="17" vertex="1">
                    <mxGeometry x="55" y="10" width="40" height="20" as="geometry"/>
                </mxCell>
                <mxCell id="15" value="" style="html=1;verticalLabelPosition=bottom;labelBackgroundColor=#ffffff;verticalAlign=top;shadow=0;dashed=0;strokeWidth=2;shape=mxgraph.ios7.misc.info;strokeColor=#0080f0;fillColor=none;" parent="17" vertex="1">
                    <mxGeometry x="300" y="10" width="20" height="20" as="geometry"/>
                </mxCell>
                <mxCell id="18" value="" style="group" parent="1" vertex="1" connectable="0">
                    <mxGeometry x="-1526" y="-460" width="340" height="40" as="geometry"/>
                </mxCell>
                <mxCell id="19" value="" style="rounded=1;whiteSpace=wrap;html=1;fillColor=none;" parent="18" vertex="1">
                    <mxGeometry width="340" height="40" as="geometry"/>
                </mxCell>
                <mxCell id="20" value="NOM_COMPOSANT" style="text;html=1;strokeColor=none;fillColor=none;align=center;verticalAlign=middle;whiteSpace=wrap;rounded=0;" parent="18" vertex="1">
                    <mxGeometry x="55" y="10" width="40" height="20" as="geometry"/>
                </mxCell>
                <mxCell id="21" value="" style="html=1;verticalLabelPosition=bottom;labelBackgroundColor=#ffffff;verticalAlign=top;shadow=0;dashed=0;strokeWidth=2;shape=mxgraph.ios7.misc.info;strokeColor=#0080f0;fillColor=none;" parent="18" vertex="1">
                    <mxGeometry x="300" y="10" width="20" height="20" as="geometry"/>
                </mxCell>
                <mxCell id="24" value="Composition" style="text;html=1;strokeColor=none;fillColor=none;align=left;verticalAlign=middle;whiteSpace=wrap;rounded=0;" parent="1" vertex="1">
                    <mxGeometry x="-1526" y="-390" width="150" height="20" as="geometry"/>
                </mxCell>
                <mxCell id="25" value="" style="group" parent="1" vertex="1" connectable="0">
                    <mxGeometry x="-1526" y="-360" width="340" height="40" as="geometry"/>
                </mxCell>
                <mxCell id="26" value="" style="rounded=1;whiteSpace=wrap;html=1;fillColor=none;" parent="25" vertex="1">
                    <mxGeometry width="340" height="40" as="geometry"/>
                </mxCell>
                <mxCell id="27" value="NOM_COMPOSANT" style="text;html=1;strokeColor=none;fillColor=none;align=center;verticalAlign=middle;whiteSpace=wrap;rounded=0;" parent="25" vertex="1">
                    <mxGeometry x="55" y="10" width="40" height="20" as="geometry"/>
                </mxCell>
                <mxCell id="28" value="" style="html=1;verticalLabelPosition=bottom;labelBackgroundColor=#ffffff;verticalAlign=top;shadow=0;dashed=0;strokeWidth=2;shape=mxgraph.ios7.misc.info;strokeColor=#0080f0;fillColor=none;" parent="25" vertex="1">
                    <mxGeometry x="300" y="10" width="20" height="20" as="geometry"/>
                </mxCell>
                <mxCell id="29" value="" style="group" parent="1" vertex="1" connectable="0">
                    <mxGeometry x="-1526" y="-310" width="340" height="40" as="geometry"/>
                </mxCell>
                <mxCell id="30" value="" style="rounded=1;whiteSpace=wrap;html=1;fillColor=none;" parent="29" vertex="1">
                    <mxGeometry width="340" height="40" as="geometry"/>
                </mxCell>
                <mxCell id="31" value="NOM_COMPOSANT" style="text;html=1;strokeColor=none;fillColor=none;align=center;verticalAlign=middle;whiteSpace=wrap;rounded=0;" parent="29" vertex="1">
                    <mxGeometry x="55" y="10" width="40" height="20" as="geometry"/>
                </mxCell>
                <mxCell id="32" value="" style="html=1;verticalLabelPosition=bottom;labelBackgroundColor=#ffffff;verticalAlign=top;shadow=0;dashed=0;strokeWidth=2;shape=mxgraph.ios7.misc.info;strokeColor=#0080f0;fillColor=none;" parent="29" vertex="1">
                    <mxGeometry x="300" y="10" width="20" height="20" as="geometry"/>
                </mxCell>
                <mxCell id="33" value="Voir tout" style="text;html=1;strokeColor=none;fillColor=none;align=center;verticalAlign=middle;whiteSpace=wrap;rounded=0;" parent="1" vertex="1">
                    <mxGeometry x="-1246" y="-390" width="60" height="20" as="geometry"/>
                </mxCell>
                <mxCell id="34" value="" style="group" parent="1" vertex="1" connectable="0">
                    <mxGeometry x="-1526" y="-260" width="340" height="40" as="geometry"/>
                </mxCell>
                <mxCell id="35" value="" style="rounded=1;whiteSpace=wrap;html=1;fillColor=none;" parent="34" vertex="1">
                    <mxGeometry width="340" height="40" as="geometry"/>
                </mxCell>
                <mxCell id="36" value="NOM_COMPOSANT" style="text;html=1;strokeColor=none;fillColor=none;align=center;verticalAlign=middle;whiteSpace=wrap;rounded=0;" parent="34" vertex="1">
                    <mxGeometry x="55" y="10" width="40" height="20" as="geometry"/>
                </mxCell>
                <mxCell id="37" value="" style="html=1;verticalLabelPosition=bottom;labelBackgroundColor=#ffffff;verticalAlign=top;shadow=0;dashed=0;strokeWidth=2;shape=mxgraph.ios7.misc.info;strokeColor=#0080f0;fillColor=none;" parent="34" vertex="1">
                    <mxGeometry x="300" y="10" width="20" height="20" as="geometry"/>
                </mxCell>
                <mxCell id="48" value="" style="group" parent="1" vertex="1" connectable="0">
                    <mxGeometry x="-1526" y="-210" width="340" height="40" as="geometry"/>
                </mxCell>
                <mxCell id="49" value="" style="rounded=1;whiteSpace=wrap;html=1;fillColor=none;" parent="48" vertex="1">
                    <mxGeometry width="340" height="40" as="geometry"/>
                </mxCell>
                <mxCell id="50" value="NOM_COMPOSANT" style="text;html=1;strokeColor=none;fillColor=none;align=center;verticalAlign=middle;whiteSpace=wrap;rounded=0;" parent="48" vertex="1">
                    <mxGeometry x="55" y="10" width="40" height="20" as="geometry"/>
                </mxCell>
                <mxCell id="51" value="" style="html=1;verticalLabelPosition=bottom;labelBackgroundColor=#ffffff;verticalAlign=top;shadow=0;dashed=0;strokeWidth=2;shape=mxgraph.ios7.misc.info;strokeColor=#0080f0;fillColor=none;" parent="48" vertex="1">
                    <mxGeometry x="300" y="10" width="20" height="20" as="geometry"/>
                </mxCell>
                <mxCell id="52" value="" style="rounded=0;whiteSpace=wrap;html=1;fillColor=none;" parent="1" vertex="1">
                    <mxGeometry x="-2082.02" y="40" width="370" height="667" as="geometry"/>
                </mxCell>
                <mxCell id="53" value="&lt;font style=&quot;font-size: 18px&quot;&gt;Historique&lt;/font&gt;" style="text;html=1;strokeColor=none;fillColor=none;align=center;verticalAlign=middle;whiteSpace=wrap;rounded=0;" parent="1" vertex="1">
                    <mxGeometry x="-2042.02" y="60" width="40" height="20" as="geometry"/>
                </mxCell>
                <mxCell id="64" value="" style="group" parent="1" vertex="1" connectable="0">
                    <mxGeometry x="-2072.02" y="110" width="340" height="80" as="geometry"/>
                </mxCell>
                <mxCell id="56" value="" style="group" parent="64" vertex="1" connectable="0">
                    <mxGeometry width="340" height="80" as="geometry"/>
                </mxCell>
                <mxCell id="57" value="" style="rounded=1;whiteSpace=wrap;html=1;fillColor=none;" parent="56" vertex="1">
                    <mxGeometry width="340" height="70" as="geometry"/>
                </mxCell>
                <mxCell id="55" value="IMAGE&lt;br&gt;&amp;nbsp;PRODUIT" style="whiteSpace=wrap;html=1;aspect=fixed;fillColor=none;" parent="56" vertex="1">
                    <mxGeometry width="70" height="70" as="geometry"/>
                </mxCell>
                <mxCell id="60" value="NOM_PRODUIT" style="text;html=1;strokeColor=none;fillColor=none;align=center;verticalAlign=middle;whiteSpace=wrap;rounded=0;" parent="56" vertex="1">
                    <mxGeometry x="110" y="10" width="40" height="20" as="geometry"/>
                </mxCell>
                <mxCell id="61" value="&amp;gt;" style="text;html=1;strokeColor=none;fillColor=none;align=center;verticalAlign=middle;whiteSpace=wrap;rounded=0;" parent="56" vertex="1">
                    <mxGeometry x="290" y="25" width="40" height="20" as="geometry"/>
                </mxCell>
                <mxCell id="62" value="X_ALLERGENES" style="text;html=1;strokeColor=none;fillColor=none;align=center;verticalAlign=middle;whiteSpace=wrap;rounded=0;fontStyle=2;fontSize=10;" parent="56" vertex="1">
                    <mxGeometry x="110" y="30" width="40" height="20" as="geometry"/>
                </mxCell>
                <mxCell id="63" value="X_INGREDIENTS" style="text;html=1;strokeColor=none;fillColor=none;align=center;verticalAlign=middle;whiteSpace=wrap;rounded=0;fontStyle=2;fontSize=10;" parent="56" vertex="1">
                    <mxGeometry x="110" y="50" width="40" height="20" as="geometry"/>
                </mxCell>
                <mxCell id="65" value="DATE" style="text;html=1;strokeColor=none;fillColor=none;align=center;verticalAlign=middle;whiteSpace=wrap;rounded=0;fontSize=10;" parent="1" vertex="1">
                    <mxGeometry x="-1917.02" y="90" width="40" height="20" as="geometry"/>
                </mxCell>
                <mxCell id="68" value="" style="endArrow=none;dashed=1;html=1;fontSize=10;entryX=1.008;entryY=0.075;entryDx=0;entryDy=0;entryPerimeter=0;" parent="1" target="52" edge="1">
                    <mxGeometry width="50" height="50" relative="1" as="geometry">
                        <mxPoint x="-2085.02" y="90" as="sourcePoint"/>
                        <mxPoint x="-1832.02" y="180" as="targetPoint"/>
                    </mxGeometry>
                </mxCell>
                <mxCell id="69" value="" style="group" parent="1" vertex="1" connectable="0">
                    <mxGeometry x="-2072.02" y="190" width="340" height="80" as="geometry"/>
                </mxCell>
                <mxCell id="70" value="" style="rounded=1;whiteSpace=wrap;html=1;fillColor=none;" parent="69" vertex="1">
                    <mxGeometry width="340" height="70" as="geometry"/>
                </mxCell>
                <mxCell id="71" value="IMAGE&lt;br&gt;&amp;nbsp;PRODUIT" style="whiteSpace=wrap;html=1;aspect=fixed;fillColor=none;" parent="69" vertex="1">
                    <mxGeometry width="70" height="70" as="geometry"/>
                </mxCell>
                <mxCell id="72" value="NOM_PRODUIT" style="text;html=1;strokeColor=none;fillColor=none;align=center;verticalAlign=middle;whiteSpace=wrap;rounded=0;" parent="69" vertex="1">
                    <mxGeometry x="110" y="10" width="40" height="20" as="geometry"/>
                </mxCell>
                <mxCell id="73" value="&amp;gt;" style="text;html=1;strokeColor=none;fillColor=none;align=center;verticalAlign=middle;whiteSpace=wrap;rounded=0;" parent="69" vertex="1">
                    <mxGeometry x="290" y="25" width="40" height="20" as="geometry"/>
                </mxCell>
                <mxCell id="74" value="X_ALLERGENES" style="text;html=1;strokeColor=none;fillColor=none;align=center;verticalAlign=middle;whiteSpace=wrap;rounded=0;fontStyle=2;fontSize=10;" parent="69" vertex="1">
                    <mxGeometry x="110" y="30" width="40" height="20" as="geometry"/>
                </mxCell>
                <mxCell id="75" value="X_INGREDIENTS" style="text;html=1;strokeColor=none;fillColor=none;align=center;verticalAlign=middle;whiteSpace=wrap;rounded=0;fontStyle=2;fontSize=10;" parent="69" vertex="1">
                    <mxGeometry x="110" y="50" width="40" height="20" as="geometry"/>
                </mxCell>
                <mxCell id="76" value="" style="group" parent="1" vertex="1" connectable="0">
                    <mxGeometry x="-2072.02" y="270" width="340" height="80" as="geometry"/>
                </mxCell>
                <mxCell id="77" value="" style="rounded=1;whiteSpace=wrap;html=1;fillColor=none;" parent="76" vertex="1">
                    <mxGeometry width="340" height="70" as="geometry"/>
                </mxCell>
                <mxCell id="78" value="IMAGE&lt;br&gt;&amp;nbsp;PRODUIT" style="whiteSpace=wrap;html=1;aspect=fixed;fillColor=none;" parent="76" vertex="1">
                    <mxGeometry width="70" height="70" as="geometry"/>
                </mxCell>
                <mxCell id="79" value="NOM_PRODUIT" style="text;html=1;strokeColor=none;fillColor=none;align=center;verticalAlign=middle;whiteSpace=wrap;rounded=0;" parent="76" vertex="1">
                    <mxGeometry x="110" y="10" width="40" height="20" as="geometry"/>
                </mxCell>
                <mxCell id="80" value="&amp;gt;" style="text;html=1;strokeColor=none;fillColor=none;align=center;verticalAlign=middle;whiteSpace=wrap;rounded=0;" parent="76" vertex="1">
                    <mxGeometry x="290" y="25" width="40" height="20" as="geometry"/>
                </mxCell>
                <mxCell id="81" value="X_ALLERGENES" style="text;html=1;strokeColor=none;fillColor=none;align=center;verticalAlign=middle;whiteSpace=wrap;rounded=0;fontStyle=2;fontSize=10;" parent="76" vertex="1">
                    <mxGeometry x="110" y="30" width="40" height="20" as="geometry"/>
                </mxCell>
                <mxCell id="82" value="X_INGREDIENTS" style="text;html=1;strokeColor=none;fillColor=none;align=center;verticalAlign=middle;whiteSpace=wrap;rounded=0;fontStyle=2;fontSize=10;" parent="76" vertex="1">
                    <mxGeometry x="110" y="50" width="40" height="20" as="geometry"/>
                </mxCell>
                <mxCell id="83" value="" style="group" parent="1" vertex="1" connectable="0">
                    <mxGeometry x="-2072.02" y="370" width="340" height="80" as="geometry"/>
                </mxCell>
                <mxCell id="84" value="" style="group" parent="83" vertex="1" connectable="0">
                    <mxGeometry width="340" height="80" as="geometry"/>
                </mxCell>
                <mxCell id="85" value="" style="rounded=1;whiteSpace=wrap;html=1;fillColor=none;" parent="84" vertex="1">
                    <mxGeometry width="340" height="70" as="geometry"/>
                </mxCell>
                <mxCell id="86" value="IMAGE&lt;br&gt;&amp;nbsp;PRODUIT" style="whiteSpace=wrap;html=1;aspect=fixed;fillColor=none;" parent="84" vertex="1">
                    <mxGeometry width="70" height="70" as="geometry"/>
                </mxCell>
                <mxCell id="87" value="NOM_PRODUIT" style="text;html=1;strokeColor=none;fillColor=none;align=center;verticalAlign=middle;whiteSpace=wrap;rounded=0;" parent="84" vertex="1">
                    <mxGeometry x="110" y="10" width="40" height="20" as="geometry"/>
                </mxCell>
                <mxCell id="88" value="&amp;gt;" style="text;html=1;strokeColor=none;fillColor=none;align=center;verticalAlign=middle;whiteSpace=wrap;rounded=0;" parent="84" vertex="1">
                    <mxGeometry x="290" y="25" width="40" height="20" as="geometry"/>
                </mxCell>
                <mxCell id="89" value="X_ALLERGENES" style="text;html=1;strokeColor=none;fillColor=none;align=center;verticalAlign=middle;whiteSpace=wrap;rounded=0;fontStyle=2;fontSize=10;" parent="84" vertex="1">
                    <mxGeometry x="110" y="30" width="40" height="20" as="geometry"/>
                </mxCell>
                <mxCell id="90" value="X_INGREDIENTS" style="text;html=1;strokeColor=none;fillColor=none;align=center;verticalAlign=middle;whiteSpace=wrap;rounded=0;fontStyle=2;fontSize=10;" parent="84" vertex="1">
                    <mxGeometry x="110" y="50" width="40" height="20" as="geometry"/>
                </mxCell>
                <mxCell id="91" value="DATE" style="text;html=1;strokeColor=none;fillColor=none;align=center;verticalAlign=middle;whiteSpace=wrap;rounded=0;fontSize=10;" parent="1" vertex="1">
                    <mxGeometry x="-1917.02" y="350" width="40" height="20" as="geometry"/>
                </mxCell>
                <mxCell id="92" value="" style="endArrow=none;dashed=1;html=1;fontSize=10;entryX=1.008;entryY=0.075;entryDx=0;entryDy=0;entryPerimeter=0;" parent="1" edge="1">
                    <mxGeometry width="50" height="50" relative="1" as="geometry">
                        <mxPoint x="-2082.02" y="350" as="sourcePoint"/>
                        <mxPoint x="-1706.06" y="350.025" as="targetPoint"/>
                    </mxGeometry>
                </mxCell>
                <mxCell id="93" value="" style="endArrow=none;dashed=1;html=1;fontSize=10;entryX=1.008;entryY=0.075;entryDx=0;entryDy=0;entryPerimeter=0;" parent="1" edge="1">
                    <mxGeometry width="50" height="50" relative="1" as="geometry">
                        <mxPoint x="-2090" y="450" as="sourcePoint"/>
                        <mxPoint x="-1714.04" y="450.025" as="targetPoint"/>
                    </mxGeometry>
                </mxCell>
                <mxCell id="94" value="DATE" style="text;html=1;strokeColor=none;fillColor=none;align=center;verticalAlign=middle;whiteSpace=wrap;rounded=0;fontSize=10;" parent="1" vertex="1">
                    <mxGeometry x="-1922.02" y="450" width="40" height="20" as="geometry"/>
                </mxCell>
                <mxCell id="96" value="" style="group" parent="1" vertex="1" connectable="0">
                    <mxGeometry x="-2072.02" y="470" width="340" height="80" as="geometry"/>
                </mxCell>
                <mxCell id="97" value="" style="group" parent="96" vertex="1" connectable="0">
                    <mxGeometry width="340" height="80" as="geometry"/>
                </mxCell>
                <mxCell id="98" value="" style="rounded=1;whiteSpace=wrap;html=1;fillColor=none;" parent="97" vertex="1">
                    <mxGeometry width="340" height="70" as="geometry"/>
                </mxCell>
                <mxCell id="99" value="IMAGE&lt;br&gt;&amp;nbsp;PRODUIT" style="whiteSpace=wrap;html=1;aspect=fixed;fillColor=none;" parent="97" vertex="1">
                    <mxGeometry width="70" height="70" as="geometry"/>
                </mxCell>
                <mxCell id="100" value="NOM_PRODUIT" style="text;html=1;strokeColor=none;fillColor=none;align=center;verticalAlign=middle;whiteSpace=wrap;rounded=0;" parent="97" vertex="1">
                    <mxGeometry x="110" y="10" width="40" height="20" as="geometry"/>
                </mxCell>
                <mxCell id="101" value="&amp;gt;" style="text;html=1;strokeColor=none;fillColor=none;align=center;verticalAlign=middle;whiteSpace=wrap;rounded=0;" parent="97" vertex="1">
                    <mxGeometry x="290" y="25" width="40" height="20" as="geometry"/>
                </mxCell>
                <mxCell id="102" value="X_ALLERGENES" style="text;html=1;strokeColor=none;fillColor=none;align=center;verticalAlign=middle;whiteSpace=wrap;rounded=0;fontStyle=2;fontSize=10;" parent="97" vertex="1">
                    <mxGeometry x="110" y="30" width="40" height="20" as="geometry"/>
                </mxCell>
                <mxCell id="103" value="X_INGREDIENTS" style="text;html=1;strokeColor=none;fillColor=none;align=center;verticalAlign=middle;whiteSpace=wrap;rounded=0;fontStyle=2;fontSize=10;" parent="97" vertex="1">
                    <mxGeometry x="110" y="50" width="40" height="20" as="geometry"/>
                </mxCell>
                <mxCell id="111" value="" style="group" parent="1" vertex="1" connectable="0">
                    <mxGeometry x="-2072.02" y="550" width="340" height="80" as="geometry"/>
                </mxCell>
                <mxCell id="112" value="" style="rounded=1;whiteSpace=wrap;html=1;fillColor=none;" parent="111" vertex="1">
                    <mxGeometry width="340" height="70" as="geometry"/>
                </mxCell>
                <mxCell id="113" value="IMAGE&lt;br&gt;&amp;nbsp;PRODUIT" style="whiteSpace=wrap;html=1;aspect=fixed;fillColor=none;" parent="111" vertex="1">
                    <mxGeometry width="70" height="70" as="geometry"/>
                </mxCell>
                <mxCell id="114" value="NOM_PRODUIT" style="text;html=1;strokeColor=none;fillColor=none;align=center;verticalAlign=middle;whiteSpace=wrap;rounded=0;" parent="111" vertex="1">
                    <mxGeometry x="110" y="10" width="40" height="20" as="geometry"/>
                </mxCell>
                <mxCell id="115" value="&amp;gt;" style="text;html=1;strokeColor=none;fillColor=none;align=center;verticalAlign=middle;whiteSpace=wrap;rounded=0;" parent="111" vertex="1">
                    <mxGeometry x="290" y="25" width="40" height="20" as="geometry"/>
                </mxCell>
                <mxCell id="116" value="X_ALLERGENES" style="text;html=1;strokeColor=none;fillColor=none;align=center;verticalAlign=middle;whiteSpace=wrap;rounded=0;fontStyle=2;fontSize=10;" parent="111" vertex="1">
                    <mxGeometry x="110" y="30" width="40" height="20" as="geometry"/>
                </mxCell>
                <mxCell id="117" value="X_INGREDIENTS" style="text;html=1;strokeColor=none;fillColor=none;align=center;verticalAlign=middle;whiteSpace=wrap;rounded=0;fontStyle=2;fontSize=10;" parent="111" vertex="1">
                    <mxGeometry x="110" y="50" width="40" height="20" as="geometry"/>
                </mxCell>
                <mxCell id="118" value="" style="rounded=0;whiteSpace=wrap;html=1;fillColor=none;" parent="1" vertex="1">
                    <mxGeometry x="-1540" y="30" width="370" height="667" as="geometry"/>
                </mxCell>
                <mxCell id="273" style="edgeStyle=orthogonalEdgeStyle;rounded=0;orthogonalLoop=1;jettySize=auto;html=1;exitX=1;exitY=0.5;exitDx=0;exitDy=0;startArrow=none;startFill=0;fontSize=7;entryX=1;entryY=0.5;entryDx=0;entryDy=0;" edge="1" parent="1" source="119" target="6">
                    <mxGeometry relative="1" as="geometry">
                        <mxPoint x="-1100" y="-404.7058823529414" as="targetPoint"/>
                        <Array as="points">
                            <mxPoint x="-1090" y="320"/>
                            <mxPoint x="-1090" y="-397"/>
                        </Array>
                    </mxGeometry>
                </mxCell>
                <mxCell id="119" value="&lt;font style=&quot;font-size: 21px&quot;&gt;SCANNER&lt;/font&gt;" style="rounded=1;whiteSpace=wrap;html=1;fillColor=none;fontSize=10;align=center;" parent="1" vertex="1">
                    <mxGeometry x="-1520" y="260" width="330" height="120" as="geometry"/>
                </mxCell>
                <mxCell id="270" style="edgeStyle=orthogonalEdgeStyle;rounded=0;orthogonalLoop=1;jettySize=auto;html=1;exitX=0;exitY=0.5;exitDx=0;exitDy=0;entryX=1;entryY=0.5;entryDx=0;entryDy=0;startArrow=none;startFill=0;fontSize=7;" edge="1" parent="1" source="122" target="52">
                    <mxGeometry relative="1" as="geometry"/>
                </mxCell>
                <mxCell id="122" value="RECENTS" style="whiteSpace=wrap;html=1;aspect=fixed;fillColor=none;fontSize=10;align=center;" parent="1" vertex="1">
                    <mxGeometry x="-1510" y="630" width="60" height="60" as="geometry"/>
                </mxCell>
                <mxCell id="124" value="SCAN" style="whiteSpace=wrap;html=1;aspect=fixed;fillColor=#525252;fontSize=10;align=center;strokeColor=#DAE3DF;" parent="1" vertex="1">
                    <mxGeometry x="-1387.5" y="630" width="60" height="60" as="geometry"/>
                </mxCell>
                <mxCell id="269" style="edgeStyle=orthogonalEdgeStyle;rounded=0;orthogonalLoop=1;jettySize=auto;html=1;exitX=1;exitY=0.5;exitDx=0;exitDy=0;entryX=0;entryY=0.5;entryDx=0;entryDy=0;startArrow=none;startFill=0;fontSize=7;" edge="1" parent="1" source="125" target="162">
                    <mxGeometry relative="1" as="geometry"/>
                </mxCell>
                <mxCell id="125" value="ANALYSE" style="whiteSpace=wrap;html=1;aspect=fixed;fillColor=none;fontSize=10;align=center;" parent="1" vertex="1">
                    <mxGeometry x="-1270" y="630" width="60" height="60" as="geometry"/>
                </mxCell>
                <mxCell id="129" value="" style="endArrow=none;html=1;fontSize=10;exitX=-0.003;exitY=0.885;exitDx=0;exitDy=0;exitPerimeter=0;entryX=1.008;entryY=0.887;entryDx=0;entryDy=0;entryPerimeter=0;" parent="1" source="118" target="118" edge="1">
                    <mxGeometry width="50" height="50" relative="1" as="geometry">
                        <mxPoint x="480" y="570" as="sourcePoint"/>
                        <mxPoint x="530" y="520" as="targetPoint"/>
                    </mxGeometry>
                </mxCell>
                <mxCell id="134" value="" style="group" parent="1" vertex="1" connectable="0">
                    <mxGeometry x="-1527" y="-160" width="340" height="40" as="geometry"/>
                </mxCell>
                <mxCell id="135" value="" style="rounded=1;whiteSpace=wrap;html=1;fillColor=none;" parent="134" vertex="1">
                    <mxGeometry width="340" height="40" as="geometry"/>
                </mxCell>
                <mxCell id="136" value="NOM_COMPOSANT" style="text;html=1;strokeColor=none;fillColor=none;align=center;verticalAlign=middle;whiteSpace=wrap;rounded=0;" parent="134" vertex="1">
                    <mxGeometry x="55" y="10" width="40" height="20" as="geometry"/>
                </mxCell>
                <mxCell id="137" value="" style="html=1;verticalLabelPosition=bottom;labelBackgroundColor=#ffffff;verticalAlign=top;shadow=0;dashed=0;strokeWidth=2;shape=mxgraph.ios7.misc.info;strokeColor=#0080f0;fillColor=none;" parent="134" vertex="1">
                    <mxGeometry x="300" y="10" width="20" height="20" as="geometry"/>
                </mxCell>
                <mxCell id="138" value="" style="group" parent="1" vertex="1" connectable="0">
                    <mxGeometry x="-1527" y="-110" width="340" height="40" as="geometry"/>
                </mxCell>
                <mxCell id="139" value="" style="rounded=1;whiteSpace=wrap;html=1;fillColor=none;" parent="138" vertex="1">
                    <mxGeometry width="340" height="40" as="geometry"/>
                </mxCell>
                <mxCell id="140" value="NOM_COMPOSANT" style="text;html=1;strokeColor=none;fillColor=none;align=center;verticalAlign=middle;whiteSpace=wrap;rounded=0;" parent="138" vertex="1">
                    <mxGeometry x="55" y="10" width="40" height="20" as="geometry"/>
                </mxCell>
                <mxCell id="141" value="" style="html=1;verticalLabelPosition=bottom;labelBackgroundColor=#ffffff;verticalAlign=top;shadow=0;dashed=0;strokeWidth=2;shape=mxgraph.ios7.misc.info;strokeColor=#0080f0;fillColor=none;" parent="138" vertex="1">
                    <mxGeometry x="300" y="10" width="20" height="20" as="geometry"/>
                </mxCell>
                <mxCell id="142" value="RETOUR" style="text;html=1;strokeColor=none;fillColor=none;align=center;verticalAlign=middle;whiteSpace=wrap;rounded=0;fontSize=10;" parent="1" vertex="1">
                    <mxGeometry x="-1537" y="-730" width="40" height="20" as="geometry"/>
                </mxCell>
                <mxCell id="154" value="RECENTS" style="whiteSpace=wrap;html=1;aspect=fixed;fillColor=#525252;fontSize=10;align=center;" parent="1" vertex="1">
                    <mxGeometry x="-2052.95" y="640" width="60" height="60" as="geometry"/>
                </mxCell>
                <mxCell id="155" value="SCAN" style="whiteSpace=wrap;html=1;aspect=fixed;fillColor=none;fontSize=10;align=center;strokeColor=#DAE3DF;" parent="1" vertex="1">
                    <mxGeometry x="-1930.45" y="640" width="60" height="60" as="geometry"/>
                </mxCell>
                <mxCell id="156" value="ANALYSE" style="whiteSpace=wrap;html=1;aspect=fixed;fillColor=none;fontSize=10;align=center;" parent="1" vertex="1">
                    <mxGeometry x="-1812.95" y="640" width="60" height="60" as="geometry"/>
                </mxCell>
                <mxCell id="157" value="" style="endArrow=none;html=1;fontSize=10;exitX=-0.003;exitY=0.885;exitDx=0;exitDy=0;exitPerimeter=0;entryX=1.008;entryY=0.887;entryDx=0;entryDy=0;entryPerimeter=0;" parent="1" edge="1">
                    <mxGeometry width="50" height="50" relative="1" as="geometry">
                        <mxPoint x="-2084.06" y="630.2950000000001" as="sourcePoint"/>
                        <mxPoint x="-1709.99" y="631.6289999999999" as="targetPoint"/>
                    </mxGeometry>
                </mxCell>
                <mxCell id="158" value="" style="endArrow=none;html=1;fontSize=10;exitX=-0.003;exitY=0.885;exitDx=0;exitDy=0;exitPerimeter=0;entryX=1.008;entryY=0.887;entryDx=0;entryDy=0;entryPerimeter=0;" parent="1" source="162" target="162" edge="1">
                    <mxGeometry width="50" height="50" relative="1" as="geometry">
                        <mxPoint x="-904.04" y="593" as="sourcePoint"/>
                        <mxPoint x="-854.04" y="543" as="targetPoint"/>
                    </mxGeometry>
                </mxCell>
                <mxCell id="159" value="RECENTS" style="whiteSpace=wrap;html=1;aspect=fixed;fillColor=none;fontSize=10;align=center;" parent="1" vertex="1">
                    <mxGeometry x="-914.04" y="633" width="60" height="60" as="geometry"/>
                </mxCell>
                <mxCell id="160" value="SCAN" style="whiteSpace=wrap;html=1;aspect=fixed;fillColor=none;fontSize=10;align=center;strokeColor=#DAE3DF;" parent="1" vertex="1">
                    <mxGeometry x="-791.54" y="633" width="60" height="60" as="geometry"/>
                </mxCell>
                <mxCell id="161" value="ANALYSE" style="whiteSpace=wrap;html=1;aspect=fixed;fillColor=#525252;fontSize=10;align=center;" parent="1" vertex="1">
                    <mxGeometry x="-674.04" y="633" width="60" height="60" as="geometry"/>
                </mxCell>
                <mxCell id="170" value="" style="endArrow=none;dashed=1;html=1;fontSize=10;entryX=1.008;entryY=0.075;entryDx=0;entryDy=0;entryPerimeter=0;" parent="1" edge="1">
                    <mxGeometry width="50" height="50" relative="1" as="geometry">
                        <mxPoint x="-950" y="71.57000000000005" as="sourcePoint"/>
                        <mxPoint x="-574.04" y="71.59500000000014" as="targetPoint"/>
                    </mxGeometry>
                </mxCell>
                <mxCell id="171" value="&lt;font style=&quot;font-size: 18px&quot;&gt;Résultats&lt;/font&gt;" style="text;html=1;strokeColor=none;fillColor=none;align=center;verticalAlign=middle;whiteSpace=wrap;rounded=0;" parent="1" vertex="1">
                    <mxGeometry x="-907" y="41.57000000000005" width="40" height="20" as="geometry"/>
                </mxCell>
                <mxCell id="176" value="" style="group" parent="1" vertex="1" connectable="0">
                    <mxGeometry x="-933.11" y="103" width="350" height="50" as="geometry"/>
                </mxCell>
                <mxCell id="163" value="" style="group" parent="176" vertex="1" connectable="0">
                    <mxGeometry width="350" height="50" as="geometry"/>
                </mxCell>
                <mxCell id="164" value="" style="rounded=1;whiteSpace=wrap;html=1;fillColor=none;" parent="163" vertex="1">
                    <mxGeometry width="349.99999999999994" height="30" as="geometry"/>
                </mxCell>
                <mxCell id="166" value="NOM_INGREDIENT" style="text;html=1;strokeColor=none;fillColor=none;align=center;verticalAlign=middle;whiteSpace=wrap;rounded=0;" parent="163" vertex="1">
                    <mxGeometry x="51.470588235294116" y="8.75" width="41.17647058823529" height="12.5" as="geometry"/>
                </mxCell>
                <mxCell id="172" style="edgeStyle=orthogonalEdgeStyle;rounded=0;orthogonalLoop=1;jettySize=auto;html=1;exitX=0.5;exitY=1;exitDx=0;exitDy=0;fontSize=10;" parent="163" source="164" target="164" edge="1">
                    <mxGeometry relative="1" as="geometry"/>
                </mxCell>
                <mxCell id="173" value="ALL | X x&amp;nbsp;" style="text;html=1;strokeColor=none;fillColor=none;align=center;verticalAlign=middle;whiteSpace=wrap;rounded=0;fontSize=10;" parent="163" vertex="1">
                    <mxGeometry x="169.99647058823527" y="8.75" width="51.470588235294116" height="12.5" as="geometry"/>
                </mxCell>
                <mxCell id="175" value="MASQUER" style="text;html=1;strokeColor=none;fillColor=none;align=center;verticalAlign=middle;whiteSpace=wrap;rounded=0;fontSize=10;" parent="163" vertex="1">
                    <mxGeometry x="298.52941176470586" y="5" width="41.17647058823529" height="20" as="geometry"/>
                </mxCell>
                <mxCell id="177" value="" style="group" parent="176" vertex="1" connectable="0">
                    <mxGeometry y="40" width="350" height="50" as="geometry"/>
                </mxCell>
                <mxCell id="178" value="" style="rounded=1;whiteSpace=wrap;html=1;fillColor=none;" parent="177" vertex="1">
                    <mxGeometry width="349.99999999999994" height="30" as="geometry"/>
                </mxCell>
                <mxCell id="179" value="NOM_INGREDIENT" style="text;html=1;strokeColor=none;fillColor=none;align=center;verticalAlign=middle;whiteSpace=wrap;rounded=0;" parent="177" vertex="1">
                    <mxGeometry x="51.470588235294116" y="8.75" width="41.17647058823529" height="12.5" as="geometry"/>
                </mxCell>
                <mxCell id="180" style="edgeStyle=orthogonalEdgeStyle;rounded=0;orthogonalLoop=1;jettySize=auto;html=1;exitX=0.5;exitY=1;exitDx=0;exitDy=0;fontSize=10;" parent="177" source="178" target="178" edge="1">
                    <mxGeometry relative="1" as="geometry"/>
                </mxCell>
                <mxCell id="181" value="ALL | X x&amp;nbsp;" style="text;html=1;strokeColor=none;fillColor=none;align=center;verticalAlign=middle;whiteSpace=wrap;rounded=0;fontSize=10;" parent="177" vertex="1">
                    <mxGeometry x="169.99647058823527" y="8.75" width="51.470588235294116" height="12.5" as="geometry"/>
                </mxCell>
                <mxCell id="182" value="MASQUER" style="text;html=1;strokeColor=none;fillColor=none;align=center;verticalAlign=middle;whiteSpace=wrap;rounded=0;fontSize=10;" parent="177" vertex="1">
                    <mxGeometry x="298.52941176470586" y="5" width="41.17647058823529" height="20" as="geometry"/>
                </mxCell>
                <mxCell id="183" value="" style="group" parent="1" vertex="1" connectable="0">
                    <mxGeometry x="-933.11" y="183" width="350" height="50" as="geometry"/>
                </mxCell>
                <mxCell id="184" value="" style="group" parent="183" vertex="1" connectable="0">
                    <mxGeometry width="350" height="50" as="geometry"/>
                </mxCell>
                <mxCell id="185" value="" style="rounded=1;whiteSpace=wrap;html=1;fillColor=none;" parent="184" vertex="1">
                    <mxGeometry width="349.99999999999994" height="30" as="geometry"/>
                </mxCell>
                <mxCell id="186" value="NOM_INGREDIENT" style="text;html=1;strokeColor=none;fillColor=none;align=center;verticalAlign=middle;whiteSpace=wrap;rounded=0;" parent="184" vertex="1">
                    <mxGeometry x="51.470588235294116" y="8.75" width="41.17647058823529" height="12.5" as="geometry"/>
                </mxCell>
                <mxCell id="187" style="edgeStyle=orthogonalEdgeStyle;rounded=0;orthogonalLoop=1;jettySize=auto;html=1;exitX=0.5;exitY=1;exitDx=0;exitDy=0;fontSize=10;" parent="184" source="185" target="185" edge="1">
                    <mxGeometry relative="1" as="geometry"/>
                </mxCell>
                <mxCell id="188" value="ALL | X x&amp;nbsp;" style="text;html=1;strokeColor=none;fillColor=none;align=center;verticalAlign=middle;whiteSpace=wrap;rounded=0;fontSize=10;" parent="184" vertex="1">
                    <mxGeometry x="169.99647058823527" y="8.75" width="51.470588235294116" height="12.5" as="geometry"/>
                </mxCell>
                <mxCell id="189" value="MASQUER" style="text;html=1;strokeColor=none;fillColor=none;align=center;verticalAlign=middle;whiteSpace=wrap;rounded=0;fontSize=10;" parent="184" vertex="1">
                    <mxGeometry x="298.52941176470586" y="5" width="41.17647058823529" height="20" as="geometry"/>
                </mxCell>
                <mxCell id="190" value="" style="group" parent="183" vertex="1" connectable="0">
                    <mxGeometry y="40" width="350" height="50" as="geometry"/>
                </mxCell>
                <mxCell id="191" value="" style="rounded=1;whiteSpace=wrap;html=1;fillColor=none;" parent="190" vertex="1">
                    <mxGeometry width="349.99999999999994" height="30" as="geometry"/>
                </mxCell>
                <mxCell id="192" value="NOM_INGREDIENT" style="text;html=1;strokeColor=none;fillColor=none;align=center;verticalAlign=middle;whiteSpace=wrap;rounded=0;" parent="190" vertex="1">
                    <mxGeometry x="51.470588235294116" y="8.75" width="41.17647058823529" height="12.5" as="geometry"/>
                </mxCell>
                <mxCell id="193" style="edgeStyle=orthogonalEdgeStyle;rounded=0;orthogonalLoop=1;jettySize=auto;html=1;exitX=0.5;exitY=1;exitDx=0;exitDy=0;fontSize=10;" parent="190" source="191" target="191" edge="1">
                    <mxGeometry relative="1" as="geometry"/>
                </mxCell>
                <mxCell id="194" value="ALL | X x&amp;nbsp;" style="text;html=1;strokeColor=none;fillColor=none;align=center;verticalAlign=middle;whiteSpace=wrap;rounded=0;fontSize=10;" parent="190" vertex="1">
                    <mxGeometry x="169.99647058823527" y="8.75" width="51.470588235294116" height="12.5" as="geometry"/>
                </mxCell>
                <mxCell id="195" value="MASQUER" style="text;html=1;strokeColor=none;fillColor=none;align=center;verticalAlign=middle;whiteSpace=wrap;rounded=0;fontSize=10;" parent="190" vertex="1">
                    <mxGeometry x="298.52941176470586" y="5" width="41.17647058823529" height="20" as="geometry"/>
                </mxCell>
                <mxCell id="196" value="" style="group" parent="1" vertex="1" connectable="0">
                    <mxGeometry x="-933.11" y="343" width="350" height="50" as="geometry"/>
                </mxCell>
                <mxCell id="197" value="" style="group" parent="196" vertex="1" connectable="0">
                    <mxGeometry width="350" height="50" as="geometry"/>
                </mxCell>
                <mxCell id="198" value="" style="rounded=1;whiteSpace=wrap;html=1;fillColor=none;" parent="197" vertex="1">
                    <mxGeometry width="349.99999999999994" height="30" as="geometry"/>
                </mxCell>
                <mxCell id="199" value="NOM_INGREDIENT" style="text;html=1;strokeColor=none;fillColor=none;align=center;verticalAlign=middle;whiteSpace=wrap;rounded=0;" parent="197" vertex="1">
                    <mxGeometry x="51.470588235294116" y="8.75" width="41.17647058823529" height="12.5" as="geometry"/>
                </mxCell>
                <mxCell id="200" style="edgeStyle=orthogonalEdgeStyle;rounded=0;orthogonalLoop=1;jettySize=auto;html=1;exitX=0.5;exitY=1;exitDx=0;exitDy=0;fontSize=10;" parent="197" source="198" target="198" edge="1">
                    <mxGeometry relative="1" as="geometry"/>
                </mxCell>
                <mxCell id="201" value="ALL | X x&amp;nbsp;" style="text;html=1;strokeColor=none;fillColor=none;align=center;verticalAlign=middle;whiteSpace=wrap;rounded=0;fontSize=10;" parent="197" vertex="1">
                    <mxGeometry x="169.99647058823527" y="8.75" width="51.470588235294116" height="12.5" as="geometry"/>
                </mxCell>
                <mxCell id="202" value="MASQUER" style="text;html=1;strokeColor=none;fillColor=none;align=center;verticalAlign=middle;whiteSpace=wrap;rounded=0;fontSize=10;" parent="197" vertex="1">
                    <mxGeometry x="298.52941176470586" y="5" width="41.17647058823529" height="20" as="geometry"/>
                </mxCell>
                <mxCell id="203" value="" style="group" parent="196" vertex="1" connectable="0">
                    <mxGeometry y="40" width="350" height="50" as="geometry"/>
                </mxCell>
                <mxCell id="204" value="" style="rounded=1;whiteSpace=wrap;html=1;fillColor=none;" parent="203" vertex="1">
                    <mxGeometry width="349.99999999999994" height="30" as="geometry"/>
                </mxCell>
                <mxCell id="205" value="NOM_INGREDIENT" style="text;html=1;strokeColor=none;fillColor=none;align=center;verticalAlign=middle;whiteSpace=wrap;rounded=0;" parent="203" vertex="1">
                    <mxGeometry x="51.470588235294116" y="8.75" width="41.17647058823529" height="12.5" as="geometry"/>
                </mxCell>
                <mxCell id="206" style="edgeStyle=orthogonalEdgeStyle;rounded=0;orthogonalLoop=1;jettySize=auto;html=1;exitX=0.5;exitY=1;exitDx=0;exitDy=0;fontSize=10;" parent="203" source="204" target="204" edge="1">
                    <mxGeometry relative="1" as="geometry"/>
                </mxCell>
                <mxCell id="207" value="ALL | X x&amp;nbsp;" style="text;html=1;strokeColor=none;fillColor=none;align=center;verticalAlign=middle;whiteSpace=wrap;rounded=0;fontSize=10;" parent="203" vertex="1">
                    <mxGeometry x="169.99647058823527" y="8.75" width="51.470588235294116" height="12.5" as="geometry"/>
                </mxCell>
                <mxCell id="208" value="MASQUER" style="text;html=1;strokeColor=none;fillColor=none;align=center;verticalAlign=middle;whiteSpace=wrap;rounded=0;fontSize=10;" parent="203" vertex="1">
                    <mxGeometry x="298.52941176470586" y="5" width="41.17647058823529" height="20" as="geometry"/>
                </mxCell>
                <mxCell id="209" value="" style="group" parent="1" vertex="1" connectable="0">
                    <mxGeometry x="-933.11" y="263" width="350" height="50" as="geometry"/>
                </mxCell>
                <mxCell id="210" value="" style="group" parent="209" vertex="1" connectable="0">
                    <mxGeometry width="350" height="50" as="geometry"/>
                </mxCell>
                <mxCell id="211" value="" style="rounded=1;whiteSpace=wrap;html=1;fillColor=none;" parent="210" vertex="1">
                    <mxGeometry width="349.99999999999994" height="30" as="geometry"/>
                </mxCell>
                <mxCell id="212" value="NOM_INGREDIENT" style="text;html=1;strokeColor=none;fillColor=none;align=center;verticalAlign=middle;whiteSpace=wrap;rounded=0;" parent="210" vertex="1">
                    <mxGeometry x="51.470588235294116" y="8.75" width="41.17647058823529" height="12.5" as="geometry"/>
                </mxCell>
                <mxCell id="213" style="edgeStyle=orthogonalEdgeStyle;rounded=0;orthogonalLoop=1;jettySize=auto;html=1;exitX=0.5;exitY=1;exitDx=0;exitDy=0;fontSize=10;" parent="210" source="211" target="211" edge="1">
                    <mxGeometry relative="1" as="geometry"/>
                </mxCell>
                <mxCell id="214" value="ALL | X x&amp;nbsp;" style="text;html=1;strokeColor=none;fillColor=none;align=center;verticalAlign=middle;whiteSpace=wrap;rounded=0;fontSize=10;" parent="210" vertex="1">
                    <mxGeometry x="169.99647058823527" y="8.75" width="51.470588235294116" height="12.5" as="geometry"/>
                </mxCell>
                <mxCell id="215" value="MASQUER" style="text;html=1;strokeColor=none;fillColor=none;align=center;verticalAlign=middle;whiteSpace=wrap;rounded=0;fontSize=10;" parent="210" vertex="1">
                    <mxGeometry x="298.52941176470586" y="5" width="41.17647058823529" height="20" as="geometry"/>
                </mxCell>
                <mxCell id="216" value="" style="group" parent="209" vertex="1" connectable="0">
                    <mxGeometry y="40" width="350" height="50" as="geometry"/>
                </mxCell>
                <mxCell id="217" value="" style="rounded=1;whiteSpace=wrap;html=1;fillColor=none;" parent="216" vertex="1">
                    <mxGeometry width="349.99999999999994" height="30" as="geometry"/>
                </mxCell>
                <mxCell id="218" value="NOM_INGREDIENT" style="text;html=1;strokeColor=none;fillColor=none;align=center;verticalAlign=middle;whiteSpace=wrap;rounded=0;" parent="216" vertex="1">
                    <mxGeometry x="51.470588235294116" y="8.75" width="41.17647058823529" height="12.5" as="geometry"/>
                </mxCell>
                <mxCell id="219" style="edgeStyle=orthogonalEdgeStyle;rounded=0;orthogonalLoop=1;jettySize=auto;html=1;exitX=0.5;exitY=1;exitDx=0;exitDy=0;fontSize=10;" parent="216" source="217" target="217" edge="1">
                    <mxGeometry relative="1" as="geometry"/>
                </mxCell>
                <mxCell id="220" value="ALL | X x&amp;nbsp;" style="text;html=1;strokeColor=none;fillColor=none;align=center;verticalAlign=middle;whiteSpace=wrap;rounded=0;fontSize=10;" parent="216" vertex="1">
                    <mxGeometry x="169.99647058823527" y="8.75" width="51.470588235294116" height="12.5" as="geometry"/>
                </mxCell>
                <mxCell id="221" value="MASQUER" style="text;html=1;strokeColor=none;fillColor=none;align=center;verticalAlign=middle;whiteSpace=wrap;rounded=0;fontSize=10;" parent="216" vertex="1">
                    <mxGeometry x="298.52941176470586" y="5" width="41.17647058823529" height="20" as="geometry"/>
                </mxCell>
                <mxCell id="222" value="" style="html=1;verticalLabelPosition=bottom;labelBackgroundColor=#ffffff;verticalAlign=top;shadow=0;dashed=0;strokeWidth=2;shape=mxgraph.ios7.misc.scroll_(vertical);fillColor=#a0a0a0;fontSize=10;align=left;" parent="1" vertex="1">
                    <mxGeometry x="-563.11" y="103" width="4" height="460" as="geometry"/>
                </mxCell>
                <mxCell id="223" value="" style="group" vertex="1" connectable="0" parent="1">
                    <mxGeometry x="-933.11" y="503" width="350" height="50" as="geometry"/>
                </mxCell>
                <mxCell id="224" value="" style="group" vertex="1" connectable="0" parent="223">
                    <mxGeometry width="350" height="50" as="geometry"/>
                </mxCell>
                <mxCell id="225" value="" style="rounded=1;whiteSpace=wrap;html=1;fillColor=none;" vertex="1" parent="224">
                    <mxGeometry width="349.99999999999994" height="30" as="geometry"/>
                </mxCell>
                <mxCell id="226" value="NOM_INGREDIENT" style="text;html=1;strokeColor=none;fillColor=none;align=center;verticalAlign=middle;whiteSpace=wrap;rounded=0;" vertex="1" parent="224">
                    <mxGeometry x="51.470588235294116" y="8.75" width="41.17647058823529" height="12.5" as="geometry"/>
                </mxCell>
                <mxCell id="227" style="edgeStyle=orthogonalEdgeStyle;rounded=0;orthogonalLoop=1;jettySize=auto;html=1;exitX=0.5;exitY=1;exitDx=0;exitDy=0;fontSize=10;" edge="1" parent="224" source="225" target="225">
                    <mxGeometry relative="1" as="geometry"/>
                </mxCell>
                <mxCell id="228" value="ALL | X x&amp;nbsp;" style="text;html=1;strokeColor=none;fillColor=none;align=center;verticalAlign=middle;whiteSpace=wrap;rounded=0;fontSize=10;" vertex="1" parent="224">
                    <mxGeometry x="169.99647058823527" y="8.75" width="51.470588235294116" height="12.5" as="geometry"/>
                </mxCell>
                <mxCell id="229" value="MASQUER" style="text;html=1;strokeColor=none;fillColor=none;align=center;verticalAlign=middle;whiteSpace=wrap;rounded=0;fontSize=10;" vertex="1" parent="224">
                    <mxGeometry x="298.52941176470586" y="5" width="41.17647058823529" height="20" as="geometry"/>
                </mxCell>
                <mxCell id="230" value="" style="group" vertex="1" connectable="0" parent="223">
                    <mxGeometry y="40" width="350" height="50" as="geometry"/>
                </mxCell>
                <mxCell id="231" value="" style="rounded=1;whiteSpace=wrap;html=1;fillColor=none;" vertex="1" parent="230">
                    <mxGeometry width="349.99999999999994" height="30" as="geometry"/>
                </mxCell>
                <mxCell id="232" value="NOM_INGREDIENT" style="text;html=1;strokeColor=none;fillColor=none;align=center;verticalAlign=middle;whiteSpace=wrap;rounded=0;" vertex="1" parent="230">
                    <mxGeometry x="51.470588235294116" y="8.75" width="41.17647058823529" height="12.5" as="geometry"/>
                </mxCell>
                <mxCell id="233" style="edgeStyle=orthogonalEdgeStyle;rounded=0;orthogonalLoop=1;jettySize=auto;html=1;exitX=0.5;exitY=1;exitDx=0;exitDy=0;fontSize=10;" edge="1" parent="230" source="231" target="231">
                    <mxGeometry relative="1" as="geometry"/>
                </mxCell>
                <mxCell id="234" value="ALL | X x&amp;nbsp;" style="text;html=1;strokeColor=none;fillColor=none;align=center;verticalAlign=middle;whiteSpace=wrap;rounded=0;fontSize=10;" vertex="1" parent="230">
                    <mxGeometry x="169.99647058823527" y="8.75" width="51.470588235294116" height="12.5" as="geometry"/>
                </mxCell>
                <mxCell id="235" value="MASQUER" style="text;html=1;strokeColor=none;fillColor=none;align=center;verticalAlign=middle;whiteSpace=wrap;rounded=0;fontSize=10;" vertex="1" parent="230">
                    <mxGeometry x="298.52941176470586" y="5" width="41.17647058823529" height="20" as="geometry"/>
                </mxCell>
                <mxCell id="236" value="" style="group" vertex="1" connectable="0" parent="1">
                    <mxGeometry x="-933.11" y="423" width="350" height="50" as="geometry"/>
                </mxCell>
                <mxCell id="237" value="" style="group" vertex="1" connectable="0" parent="236">
                    <mxGeometry width="350" height="50" as="geometry"/>
                </mxCell>
                <mxCell id="238" value="" style="rounded=1;whiteSpace=wrap;html=1;fillColor=none;" vertex="1" parent="237">
                    <mxGeometry width="349.99999999999994" height="30" as="geometry"/>
                </mxCell>
                <mxCell id="239" value="NOM_INGREDIENT" style="text;html=1;strokeColor=none;fillColor=none;align=center;verticalAlign=middle;whiteSpace=wrap;rounded=0;" vertex="1" parent="237">
                    <mxGeometry x="51.470588235294116" y="8.75" width="41.17647058823529" height="12.5" as="geometry"/>
                </mxCell>
                <mxCell id="240" style="edgeStyle=orthogonalEdgeStyle;rounded=0;orthogonalLoop=1;jettySize=auto;html=1;exitX=0.5;exitY=1;exitDx=0;exitDy=0;fontSize=10;" edge="1" parent="237" source="238" target="238">
                    <mxGeometry relative="1" as="geometry"/>
                </mxCell>
                <mxCell id="241" value="ALL | X x&amp;nbsp;" style="text;html=1;strokeColor=none;fillColor=none;align=center;verticalAlign=middle;whiteSpace=wrap;rounded=0;fontSize=10;" vertex="1" parent="237">
                    <mxGeometry x="169.99647058823527" y="8.75" width="51.470588235294116" height="12.5" as="geometry"/>
                </mxCell>
                <mxCell id="242" value="MASQUER" style="text;html=1;strokeColor=none;fillColor=none;align=center;verticalAlign=middle;whiteSpace=wrap;rounded=0;fontSize=10;" vertex="1" parent="237">
                    <mxGeometry x="298.52941176470586" y="5" width="41.17647058823529" height="20" as="geometry"/>
                </mxCell>
                <mxCell id="243" value="" style="group" vertex="1" connectable="0" parent="236">
                    <mxGeometry y="40" width="350" height="50" as="geometry"/>
                </mxCell>
                <mxCell id="244" value="" style="rounded=1;whiteSpace=wrap;html=1;fillColor=none;" vertex="1" parent="243">
                    <mxGeometry width="349.99999999999994" height="30" as="geometry"/>
                </mxCell>
                <mxCell id="245" value="NOM_INGREDIENT" style="text;html=1;strokeColor=none;fillColor=none;align=center;verticalAlign=middle;whiteSpace=wrap;rounded=0;" vertex="1" parent="243">
                    <mxGeometry x="51.470588235294116" y="8.75" width="41.17647058823529" height="12.5" as="geometry"/>
                </mxCell>
                <mxCell id="246" style="edgeStyle=orthogonalEdgeStyle;rounded=0;orthogonalLoop=1;jettySize=auto;html=1;exitX=0.5;exitY=1;exitDx=0;exitDy=0;fontSize=10;" edge="1" parent="243" source="244" target="244">
                    <mxGeometry relative="1" as="geometry"/>
                </mxCell>
                <mxCell id="247" value="ALL | X x&amp;nbsp;" style="text;html=1;strokeColor=none;fillColor=none;align=center;verticalAlign=middle;whiteSpace=wrap;rounded=0;fontSize=10;" vertex="1" parent="243">
                    <mxGeometry x="169.99647058823527" y="8.75" width="51.470588235294116" height="12.5" as="geometry"/>
                </mxCell>
                <mxCell id="248" value="MASQUER" style="text;html=1;strokeColor=none;fillColor=none;align=center;verticalAlign=middle;whiteSpace=wrap;rounded=0;fontSize=10;" vertex="1" parent="243">
                    <mxGeometry x="298.52941176470586" y="5" width="41.17647058823529" height="20" as="geometry"/>
                </mxCell>
                <mxCell id="249" value="" style="html=1;verticalLabelPosition=bottom;labelBackgroundColor=#ffffff;verticalAlign=top;shadow=0;dashed=0;strokeWidth=2;shape=mxgraph.ios7.misc.scroll_(vertical);fillColor=#a0a0a0;fontSize=10;align=left;" vertex="1" parent="1">
                    <mxGeometry x="-1702.02" y="100" width="4" height="510" as="geometry"/>
                </mxCell>
                <mxCell id="268" style="edgeStyle=orthogonalEdgeStyle;rounded=0;orthogonalLoop=1;jettySize=auto;html=1;exitX=1;exitY=0.5;exitDx=0;exitDy=0;entryX=0;entryY=0.5;entryDx=0;entryDy=0;fontSize=7;startArrow=classic;startFill=1;" edge="1" parent="1" source="252" target="256">
                    <mxGeometry relative="1" as="geometry"/>
                </mxCell>
                <mxCell id="252" value="VOIR DIAG" style="text;html=1;strokeColor=none;fillColor=none;align=center;verticalAlign=middle;whiteSpace=wrap;rounded=0;fontSize=7;" vertex="1" parent="1">
                    <mxGeometry x="-643.11" y="73" width="60" height="20" as="geometry"/>
                </mxCell>
                <mxCell id="253" value="" style="rounded=0;whiteSpace=wrap;html=1;fillColor=none;" vertex="1" parent="1">
                    <mxGeometry x="-434.03999999999996" y="34.5" width="370" height="667" as="geometry"/>
                </mxCell>
                <mxCell id="254" value="&lt;font style=&quot;font-size: 18px&quot;&gt;Résultats&lt;/font&gt;" style="text;html=1;strokeColor=none;fillColor=none;align=center;verticalAlign=middle;whiteSpace=wrap;rounded=0;" vertex="1" parent="1">
                    <mxGeometry x="-397" y="43.070000000000164" width="40" height="20" as="geometry"/>
                </mxCell>
                <mxCell id="255" value="" style="endArrow=none;dashed=1;html=1;fontSize=10;entryX=1.008;entryY=0.075;entryDx=0;entryDy=0;entryPerimeter=0;" edge="1" parent="1">
                    <mxGeometry width="50" height="50" relative="1" as="geometry">
                        <mxPoint x="-439.9999999999999" y="73.07000000000016" as="sourcePoint"/>
                        <mxPoint x="-64.0400000000003" y="73.09500000000003" as="targetPoint"/>
                    </mxGeometry>
                </mxCell>
                <mxCell id="256" value="VOIR LISTE" style="text;html=1;strokeColor=none;fillColor=none;align=center;verticalAlign=middle;whiteSpace=wrap;rounded=0;fontSize=7;" vertex="1" parent="1">
                    <mxGeometry x="-133.11" y="74.5" width="60" height="20" as="geometry"/>
                </mxCell>
                <mxCell id="257" value="RECENTS" style="whiteSpace=wrap;html=1;aspect=fixed;fillColor=none;fontSize=10;align=center;" vertex="1" parent="1">
                    <mxGeometry x="-404.03999999999996" y="634.5" width="60" height="60" as="geometry"/>
                </mxCell>
                <mxCell id="258" value="SCAN" style="whiteSpace=wrap;html=1;aspect=fixed;fillColor=none;fontSize=10;align=center;strokeColor=#DAE3DF;" vertex="1" parent="1">
                    <mxGeometry x="-281.53999999999996" y="634.5" width="60" height="60" as="geometry"/>
                </mxCell>
                <mxCell id="259" value="ANALYSE" style="whiteSpace=wrap;html=1;aspect=fixed;fillColor=#525252;fontSize=10;align=center;" vertex="1" parent="1">
                    <mxGeometry x="-164.03999999999996" y="634.5" width="60" height="60" as="geometry"/>
                </mxCell>
                <mxCell id="260" value="" style="endArrow=none;html=1;fontSize=10;exitX=-0.003;exitY=0.885;exitDx=0;exitDy=0;exitPerimeter=0;entryX=1.008;entryY=0.887;entryDx=0;entryDy=0;entryPerimeter=0;" edge="1" source="253" target="253" parent="1">
                    <mxGeometry width="50" height="50" relative="1" as="geometry">
                        <mxPoint x="-394.03999999999996" y="594.5" as="sourcePoint"/>
                        <mxPoint x="-344.03999999999996" y="544.5" as="targetPoint"/>
                    </mxGeometry>
                </mxCell>
                <mxCell id="261" value="" style="html=1;verticalLabelPosition=bottom;align=center;labelBackgroundColor=#ffffff;verticalAlign=top;strokeWidth=2;strokeColor=#fff;shadow=0;dashed=0;shape=mxgraph.ios7.icons.pie_chart;fillColor=none;fontSize=7;" vertex="1" parent="1">
                    <mxGeometry x="-406.53999999999996" y="143" width="310" height="310" as="geometry"/>
                </mxCell>
                <mxCell id="262" value="o INGREDIENT" style="text;html=1;strokeColor=none;fillColor=none;align=center;verticalAlign=middle;whiteSpace=wrap;rounded=0;fontSize=7;" vertex="1" parent="1">
                    <mxGeometry x="-397" y="493" width="79" height="20" as="geometry"/>
                </mxCell>
                <mxCell id="263" value="o INGREDIENT" style="text;html=1;strokeColor=none;fillColor=none;align=center;verticalAlign=middle;whiteSpace=wrap;rounded=0;fontSize=7;" vertex="1" parent="1">
                    <mxGeometry x="-397" y="523" width="79" height="20" as="geometry"/>
                </mxCell>
                <mxCell id="264" value="o INGREDIENT" style="text;html=1;strokeColor=none;fillColor=none;align=center;verticalAlign=middle;whiteSpace=wrap;rounded=0;fontSize=7;" vertex="1" parent="1">
                    <mxGeometry x="-397" y="553" width="79" height="20" as="geometry"/>
                </mxCell>
                <mxCell id="265" value="o INGREDIENT" style="text;html=1;strokeColor=none;fillColor=none;align=center;verticalAlign=middle;whiteSpace=wrap;rounded=0;fontSize=7;" vertex="1" parent="1">
                    <mxGeometry x="-235.07999999999998" y="493" width="79" height="20" as="geometry"/>
                </mxCell>
                <mxCell id="266" value="o INGREDIENT" style="text;html=1;strokeColor=none;fillColor=none;align=center;verticalAlign=middle;whiteSpace=wrap;rounded=0;fontSize=7;" vertex="1" parent="1">
                    <mxGeometry x="-235.07999999999998" y="523" width="79" height="20" as="geometry"/>
                </mxCell>
                <mxCell id="267" value="o INGREDIENT" style="text;html=1;strokeColor=none;fillColor=none;align=center;verticalAlign=middle;whiteSpace=wrap;rounded=0;fontSize=7;" vertex="1" parent="1">
                    <mxGeometry x="-235.07999999999998" y="553" width="79" height="20" as="geometry"/>
                </mxCell>
                <mxCell id="271" style="edgeStyle=orthogonalEdgeStyle;rounded=0;orthogonalLoop=1;jettySize=auto;html=1;exitX=0.5;exitY=0;exitDx=0;exitDy=0;entryX=0;entryY=0.5;entryDx=0;entryDy=0;startArrow=none;startFill=0;fontSize=7;" edge="1" parent="1" source="61" target="6">
                    <mxGeometry relative="1" as="geometry"/>
                </mxCell>
                <mxCell id="274" value="&lt;font style=&quot;font-size: 18px&quot;&gt;Composants&lt;/font&gt;" style="text;html=1;strokeColor=none;fillColor=none;align=center;verticalAlign=middle;whiteSpace=wrap;rounded=0;fontSize=7;" vertex="1" parent="1">
                    <mxGeometry x="-1000" y="-710" width="40" height="20" as="geometry"/>
                </mxCell>
                <mxCell id="278" value="&lt;h1&gt;Heading&lt;/h1&gt;&lt;p style=&quot;font-size: 15px&quot;&gt;- View -&amp;gt; Style&amp;nbsp;&lt;/p&gt;&lt;p style=&quot;font-size: 15px&quot;&gt;- Image -&amp;gt; Source/Style&lt;/p&gt;&lt;p style=&quot;font-size: 15px&quot;&gt;- ScrollView&lt;span&gt;&amp;nbsp;&lt;/span&gt;&lt;/p&gt;&lt;p style=&quot;font-size: 15px&quot;&gt;- Flat List&amp;nbsp; -&amp;gt; Data / RenderItem / Key&lt;/p&gt;&lt;p style=&quot;font-size: 15px&quot;&gt;- React Native Pie -&amp;gt; Radius / Sections&lt;/p&gt;&lt;p style=&quot;font-size: 15px&quot;&gt;- Scan barcode -&amp;gt; onBarcodeRead / ref / style / aspect...&lt;/p&gt;&lt;p style=&quot;font-size: 15px&quot;&gt;- Touchable&lt;/p&gt;&lt;p style=&quot;font-size: 15px&quot;&gt;- Section List&lt;/p&gt;" style="text;html=1;strokeColor=none;fillColor=none;spacing=5;spacingTop=-20;whiteSpace=wrap;overflow=hidden;rounded=0;fontSize=7;align=left;" vertex="1" parent="1">
                    <mxGeometry x="-1050" y="-640" width="270" height="320" as="geometry"/>
                </mxCell>
            </root>
        </mxGraphModel>
    </diagram>
</mxfile>